/* XPM */
static char * fireftp_main_window_xpm[] = {
"16 16 117 2",
"  	c None",
". 	c #9FB7E7",
"+ 	c #AFC7F1",
"@ 	c #A7C0EE",
"# 	c #5E72B4",
"$ 	c #3664C1",
"% 	c #4383E6",
"& 	c #89A2DB",
"* 	c #859FDC",
"= 	c #3452AB",
"- 	c #3665C3",
"; 	c #4684E0",
"> 	c #6288DC",
", 	c #829BDF",
"' 	c #7B91CE",
") 	c #4A62B5",
"! 	c #294CB2",
"~ 	c #3869CA",
"{ 	c #4774CF",
"] 	c #435AA4",
"^ 	c #CCD2ED",
"/ 	c #2A52B9",
"( 	c #697BBF",
"_ 	c #1C3296",
": 	c #2141AB",
"< 	c #366BD3",
"[ 	c #668BDD",
"} 	c #979FC7",
"| 	c #D1D9F1",
"1 	c #3769CB",
"2 	c #AEC6EF",
"3 	c #1B3090",
"4 	c #1E399F",
"5 	c #1D3697",
"6 	c #356AD3",
"7 	c #A2B0E1",
"8 	c #3464CB",
"9 	c #2F5BC6",
"0 	c #254BBA",
"a 	c #2247B6",
"b 	c #2246B4",
"c 	c #A3BBEA",
"d 	c #B4CBF3",
"e 	c #374DA5",
"f 	c #1F3BA1",
"g 	c #203EA2",
"h 	c #203EA7",
"i 	c #254BBC",
"j 	c #254ABB",
"k 	c #244ABA",
"l 	c #2348B6",
"m 	c #7B93D2",
"n 	c #94B0E6",
"o 	c #9FBAEC",
"p 	c #A6BEEB",
"q 	c #4D66BB",
"r 	c #2348B8",
"s 	c #7B91CD",
"t 	c #879FD8",
"u 	c #91ABE1",
"v 	c #87A1DC",
"w 	c #3859BF",
"x 	c #2449B9",
"y 	c #478AE5",
"z 	c #417EDD",
"A 	c #6F84C4",
"B 	c #8399D4",
"C 	c #88A0D8",
"D 	c #5E79C9",
"E 	c #3465CC",
"F 	c #3566CC",
"G 	c #3160C9",
"H 	c #305FC7",
"I 	c #3667CE",
"J 	c #2F5EC6",
"K 	c #677ABA",
"L 	c #788BC8",
"M 	c #768CCA",
"N 	c #3153BD",
"O 	c #6E81C0",
"P 	c #6678BA",
"Q 	c #7486C4",
"R 	c #687DC0",
"S 	c #2346B6",
"T 	c #2145B3",
"U 	c #3366CA",
"V 	c #6E81C1",
"W 	c #4D60AD",
"X 	c #2141AE",
"Y 	c #1F41AC",
"Z 	c #1F41AB",
"` 	c #2041AC",
" .	c #17298A",
"..	c #1E3AA4",
"+.	c #1D3AA4",
"@.	c #1B349A",
"#.	c #1B3399",
"$.	c #1D3AA3",
"%.	c #1A3095",
"&.	c #1B3197",
"*.	c #1C3498",
"=.	c #1D379B",
"-.	c #1C3298",
";.	c #162888",
">.	c #162787",
",.	c #1A2F8F",
"'.	c #2443A2",
").	c #305DBD",
"!.	c #386ECE",
"~.	c #2B53B2",
"{.	c #1E3797",
"].	c #172B8B",
"^.	c #121E7A",
"/.	c #172682",
"(.	c #1C338F",
"_.	c #1E3894",
":.	c #1B2E8A",
"      . + @ # $ %               ",
"      & * = - ; > ,             ",
"      ' ) ! ~ { ] ^ /           ",
"      ( _ : < [ } | 1           ",
"  2     3 4 5 6 7 8 9 0 a b     ",
"    c d e f g h i i j k l       ",
"  m n o p q j r                 ",
"  s t u v w x     y z           ",
"  A B C D x   E F G H I J       ",
"  K L M N     k         x       ",
"O P Q R S   T T   U U   T T     ",
"    V W X     X Y Z `   ` `     ",
"       ...+.  @.#.#.@.  ..$.    ",
"        %.&.*.        =.-.      ",
"        ;.>.,.'.).!.~.{.].      ",
"            ^./.(._.:.          "};
